<mxfile host="app.diagrams.net" modified="2024-04-14T14:41:41.436Z" agent="Mozilla/5.0 (Windows NT 10.0; Win64; x64) AppleWebKit/537.36 (KHTML, like Gecko) Chrome/123.0.0.0 Safari/537.36" etag="7qK_LRx-qLhelbW2pWsi" version="24.2.5" type="github">
  <diagram name="Page-1" id="iR4N4BcREr7UFgB49-8y">
    <mxGraphModel dx="955" dy="475" grid="1" gridSize="10" guides="1" tooltips="1" connect="1" arrows="1" fold="1" page="1" pageScale="1" pageWidth="827" pageHeight="1169" math="0" shadow="0">
      <root>
        <mxCell id="0" />
        <mxCell id="1" parent="0" />
        <mxCell id="dkj_W2RUq003pUZIVeDE-7" style="edgeStyle=orthogonalEdgeStyle;rounded=0;orthogonalLoop=1;jettySize=auto;html=1;" edge="1" parent="1" source="dkj_W2RUq003pUZIVeDE-3" target="dkj_W2RUq003pUZIVeDE-6">
          <mxGeometry relative="1" as="geometry" />
        </mxCell>
        <mxCell id="dkj_W2RUq003pUZIVeDE-8" value="user id, username" style="edgeLabel;html=1;align=center;verticalAlign=middle;resizable=0;points=[];" vertex="1" connectable="0" parent="dkj_W2RUq003pUZIVeDE-7">
          <mxGeometry x="0.08" y="-2" relative="1" as="geometry">
            <mxPoint as="offset" />
          </mxGeometry>
        </mxCell>
        <mxCell id="dkj_W2RUq003pUZIVeDE-3" value="front end user login" style="whiteSpace=wrap;html=1;aspect=fixed;" vertex="1" parent="1">
          <mxGeometry x="30" y="20" width="100" height="100" as="geometry" />
        </mxCell>
        <mxCell id="dkj_W2RUq003pUZIVeDE-30" style="edgeStyle=orthogonalEdgeStyle;rounded=0;orthogonalLoop=1;jettySize=auto;html=1;exitX=1;exitY=1;exitDx=0;exitDy=-15;exitPerimeter=0;" edge="1" parent="1" source="dkj_W2RUq003pUZIVeDE-6" target="dkj_W2RUq003pUZIVeDE-29">
          <mxGeometry relative="1" as="geometry" />
        </mxCell>
        <mxCell id="dkj_W2RUq003pUZIVeDE-31" value="send random username&lt;div&gt;and id from DB&lt;/div&gt;" style="edgeLabel;html=1;align=center;verticalAlign=middle;resizable=0;points=[];" vertex="1" connectable="0" parent="dkj_W2RUq003pUZIVeDE-30">
          <mxGeometry x="0.0762" y="-1" relative="1" as="geometry">
            <mxPoint as="offset" />
          </mxGeometry>
        </mxCell>
        <mxCell id="dkj_W2RUq003pUZIVeDE-6" value="server" style="shape=cylinder3;whiteSpace=wrap;html=1;boundedLbl=1;backgroundOutline=1;size=15;" vertex="1" parent="1">
          <mxGeometry x="170" y="140" width="120" height="130" as="geometry" />
        </mxCell>
        <mxCell id="dkj_W2RUq003pUZIVeDE-9" value="&lt;div&gt;&lt;br data-sider-select-id=&quot;1c36aad7-cb02-4379-bf0d-b046f35600b9&quot;&gt;&lt;/div&gt;select random&amp;nbsp;&lt;div&gt;user id from&amp;nbsp;&lt;/div&gt;&lt;div&gt;DB,&amp;nbsp;&lt;/div&gt;" style="ellipse;shape=cloud;whiteSpace=wrap;html=1;fontSize=12;" vertex="1" parent="1">
          <mxGeometry x="100" y="160" width="110" height="80" as="geometry" />
        </mxCell>
        <mxCell id="dkj_W2RUq003pUZIVeDE-17" style="edgeStyle=orthogonalEdgeStyle;rounded=0;orthogonalLoop=1;jettySize=auto;html=1;exitX=1;exitY=1;exitDx=0;exitDy=0;" edge="1" parent="1" source="dkj_W2RUq003pUZIVeDE-10" target="dkj_W2RUq003pUZIVeDE-19">
          <mxGeometry relative="1" as="geometry">
            <mxPoint x="570" y="185.05882352941182" as="targetPoint" />
            <Array as="points">
              <mxPoint x="440" y="100" />
              <mxPoint x="460" y="100" />
              <mxPoint x="460" y="185" />
            </Array>
          </mxGeometry>
        </mxCell>
        <mxCell id="dkj_W2RUq003pUZIVeDE-18" value="send message&amp;nbsp;&lt;div&gt;with his userID&amp;nbsp;&lt;/div&gt;&lt;div&gt;and randome&lt;/div&gt;&lt;div&gt;userID&lt;/div&gt;" style="edgeLabel;html=1;align=center;verticalAlign=middle;resizable=0;points=[];" vertex="1" connectable="0" parent="dkj_W2RUq003pUZIVeDE-17">
          <mxGeometry x="0.3499" relative="1" as="geometry">
            <mxPoint as="offset" />
          </mxGeometry>
        </mxCell>
        <mxCell id="dkj_W2RUq003pUZIVeDE-10" value="front end" style="rounded=0;whiteSpace=wrap;html=1;" vertex="1" parent="1">
          <mxGeometry x="320" y="20" width="120" height="100" as="geometry" />
        </mxCell>
        <mxCell id="dkj_W2RUq003pUZIVeDE-12" style="edgeStyle=orthogonalEdgeStyle;rounded=0;orthogonalLoop=1;jettySize=auto;html=1;entryX=0.564;entryY=0.998;entryDx=0;entryDy=0;entryPerimeter=0;" edge="1" parent="1" source="dkj_W2RUq003pUZIVeDE-6" target="dkj_W2RUq003pUZIVeDE-10">
          <mxGeometry relative="1" as="geometry" />
        </mxCell>
        <mxCell id="dkj_W2RUq003pUZIVeDE-13" value="send random username&lt;div&gt;and id from DB&lt;/div&gt;" style="edgeLabel;html=1;align=center;verticalAlign=middle;resizable=0;points=[];" vertex="1" connectable="0" parent="dkj_W2RUq003pUZIVeDE-12">
          <mxGeometry x="-0.1319" y="-2" relative="1" as="geometry">
            <mxPoint as="offset" />
          </mxGeometry>
        </mxCell>
        <mxCell id="dkj_W2RUq003pUZIVeDE-14" value="&lt;div style=&quot;font-size: 11px;&quot;&gt;&lt;span style=&quot;background-color: initial;&quot;&gt;front end save&lt;/span&gt;&lt;br&gt;&lt;/div&gt;&lt;div style=&quot;font-size: 11px;&quot;&gt;&lt;font style=&quot;font-size: 11px;&quot;&gt;randome&amp;nbsp;&lt;/font&gt;&lt;/div&gt;&lt;div style=&quot;font-size: 11px;&quot;&gt;&lt;font style=&quot;font-size: 11px;&quot;&gt;username&amp;nbsp;&lt;/font&gt;&lt;span style=&quot;background-color: initial;&quot;&gt;and ID&lt;/span&gt;&lt;/div&gt;" style="ellipse;shape=cloud;whiteSpace=wrap;html=1;" vertex="1" parent="1">
          <mxGeometry x="414" y="20" width="136" height="80" as="geometry" />
        </mxCell>
        <mxCell id="dkj_W2RUq003pUZIVeDE-19" value="server" style="shape=cylinder3;whiteSpace=wrap;html=1;boundedLbl=1;backgroundOutline=1;size=15;" vertex="1" parent="1">
          <mxGeometry x="570" y="135" width="120" height="130" as="geometry" />
        </mxCell>
        <mxCell id="dkj_W2RUq003pUZIVeDE-22" value="other user login" style="whiteSpace=wrap;html=1;aspect=fixed;" vertex="1" parent="1">
          <mxGeometry x="20" y="300" width="100" height="100" as="geometry" />
        </mxCell>
        <mxCell id="dkj_W2RUq003pUZIVeDE-23" style="edgeStyle=orthogonalEdgeStyle;rounded=0;orthogonalLoop=1;jettySize=auto;html=1;entryX=0.5;entryY=1;entryDx=0;entryDy=0;entryPerimeter=0;" edge="1" parent="1" source="dkj_W2RUq003pUZIVeDE-22" target="dkj_W2RUq003pUZIVeDE-6">
          <mxGeometry relative="1" as="geometry" />
        </mxCell>
        <mxCell id="dkj_W2RUq003pUZIVeDE-29" value="front end" style="rounded=0;whiteSpace=wrap;html=1;" vertex="1" parent="1">
          <mxGeometry x="340" y="300" width="120" height="100" as="geometry" />
        </mxCell>
      </root>
    </mxGraphModel>
  </diagram>
</mxfile>
